{"asset":{"generator":"Modov11.2","version":"2.0"},"scene":0,"scenes":[{"nodes":[0,1,2]}],"nodes":[{"name":"posta","mesh":0},{"name":"Camera","matrix":[1.0,0.0,0.0,0.0,0.0,0.9961947202682495,-0.08715574443340302,0.0,0.0,0.08715574443340302,0.9961947202682495,0.0,0.0,0.75,4.0,1.0],"camera":0},{"name":"Texture Group"}],"meshes":[{"primitives":[{"indices":1,"mode":4,"material":1,"attributes":{"POSITION":0,"NORMAL":2,"TEXCOORD_0":3}}]}],"buffers":[{"byteLength":212544,"uri":"exp.bin"}],"bufferViews":[{"buffer":0,"byteLength":47448},{"buffer":0,"byteLength":86016,"byteOffset":47448},{"buffer":0,"byteLength":47448,"byteOffset":133464},{"buffer":0,"byteLength":31632,"byteOffset":180912}],"accessors":[{"bufferView":0,"type":"VEC3","componentType":5126,"count":3954,"min":[-0.20182856917381288,-0.1985171139240265,-0.20182856917381288],"max":[0.20182856917381288,0.1985171139240265,0.20182856917381288]},{"bufferView":1,"type":"SCALAR","componentType":5125,"count":21504},{"bufferView":2,"type":"VEC3","componentType":5126,"count":3954},{"bufferView":3,"type":"VEC2","componentType":5126,"count":3954}],"materials":[{"pbrMetallicRoughness":{"metallicFactor":0.5,"roughnessFactor":0.5}},{"name":"Default","emissiveFactor":[0.0,0.0,0.0],"alphaMode":"OPAQUE","doubleSided":false,"pbrMetallicRoughness":{"baseColorFactor":[1.0,1.0,1.0,1.0],"metallicFactor":1.0,"roughnessFactor":1.0}}],"cameras":[{"name":"Camera","type":"perspective","perspective":{"znear":0.01,"yfov":0.8726}}]}