{
  "accessors": [
    {
      "bufferView": 0,
      "componentType": 5125,
      "count": 21504,
      "type": "SCALAR"
    },
    {
      "bufferView": 1,
      "componentType": 5126,
      "count": 4146,
      "max": [
        0.201828986406326,
        0.198516979813576,
        0.201828986406326
      ],
      "min": [
        -0.201828986406326,
        -0.198516979813576,
        -0.201828986406326
      ],
      "type": "VEC3"
    },
    {
      "bufferView": 2,
      "componentType": 5126,
      "count": 4146,
      "type": "VEC3"
    },
    {
      "bufferView": 3,
      "componentType": 5126,
      "count": 4146,
      "type": "VEC4"
    },
    {
      "bufferView": 4,
      "componentType": 5126,
      "count": 4146,
      "type": "VEC2"
    }
  ],
  "asset": {
    "generator": "Adobe Substance 3D Painter 8.1.0",
    "version": "2.0"
  },
  "bufferViews": [
    {
      "buffer": 0,
      "byteLength": 86016,
      "target": 34963
    },
    {
      "buffer": 0,
      "byteLength": 49752,
      "byteOffset": 86016,
      "target": 34962
    },
    {
      "buffer": 0,
      "byteLength": 49752,
      "byteOffset": 135768,
      "target": 34962
    },
    {
      "buffer": 0,
      "byteLength": 66336,
      "byteOffset": 185520,
      "target": 34962
    },
    {
      "buffer": 0,
      "byteLength": 33168,
      "byteOffset": 251856,
      "target": 34962
    }
  ],
  "buffers": [
    {
      "byteLength": 285024,
      "uri": "maps exp.bin"
    }
  ],
  "images": [
    {
      "uri": "exp_baseColor.png"
    },
    {
      "uri": "exp_occlusionRoughnessMetallic.png"
    },
    {
      "uri": "exp_normal.png"
    }
  ],
  "materials": [
    {
      "alphaMode": "OPAQUE",
      "name": "exp",
      "normalTexture": {
        "index": 2
      },
      "occlusionTexture": {
        "index": 1
      },
      "pbrMetallicRoughness": {
        "baseColorTexture": {
          "index": 0
        },
        "metallicRoughnessTexture": {
          "index": 1
        }
      }
    }
  ],
  "meshes": [
    {
      "name": "posta_l",
      "primitives": [
        {
          "attributes": {
            "NORMAL": 2,
            "POSITION": 1,
            "TANGENT": 3,
            "TEXCOORD_0": 4
          },
          "indices": 0,
          "material": 0,
          "mode": 4
        }
      ]
    }
  ],
  "nodes": [
    {
      "children": [
        1
      ],
      "name": "exp_l.obj"
    },
    {
      "children": [
        2
      ],
      "name": "posta_l"
    },
    {
      "mesh": 0,
      "name": "posta_l"
    }
  ],
  "samplers": [
    {
      "magFilter": 9729,
      "minFilter": 9985,
      "wrapS": 10497,
      "wrapT": 10497
    }
  ],
  "scene": 0,
  "scenes": [
    {
      "name": "Scene",
      "nodes": [
        0
      ]
    }
  ],
  "textures": [
    {
      "sampler": 0,
      "source": 0
    },
    {
      "sampler": 0,
      "source": 1
    },
    {
      "sampler": 0,
      "source": 2
    }
  ]
}