<svg xmlns="http://www.w3.org/2000/svg" width="158" height="18" fill="none" viewBox="0 0 158 18"><path fill="#000" fill-rule="evenodd" d="M4 2H2V16H6V12H10V10H12V4H10V2H6H4ZM8 10V4H6V10H8ZM14 2H18V16H14V2ZM22 4H20V14H22V16H30V14H24V4H30V2H22V4ZM42 2H34V4H32V14H34V16H42V14H44V4H42V2ZM40 4H36V14H40V4ZM48 2H54V4H50V8H52V10H54V14H52V16H46V14H50V10H48V8H46V4H48V2ZM58 16H56V2H58H60H66V4H60V6H64V8H60V14H66V16H60H58ZM72 14H78V16H70V14H68V4H70V2H78V4H72V14ZM88 14H84V4H88V14ZM92 4H90V2H82V4H80V14H82V16H90V14H92V4Z" clip-rule="evenodd"/><path fill="#000" fill-rule="evenodd" d="M135 4H134V5H133V6H134V5H135V4ZM124 5H123V6H124V5ZM144 5H145V6H144V5ZM144 5H137V4H144V5ZM145 12V6H146V12H145ZM144 13V12H145V13H144ZM144 13V14H143V13H144ZM153 7H152V8H153V10H152V11H153V10H154V11H155V10H156V8H155V7H154V8H153V7ZM154 8V10H155V8H154ZM128 7H127V10H128V12H130V10H131V7H130V10H128V7ZM151 8H148V9H151V8Z" clip-rule="evenodd"/></svg>